<?xml version="1.0" encoding="UTF-8"?>
<svg id="Layer_2" data-name="Layer 2" xmlns="http://www.w3.org/2000/svg" viewBox="0 0 182.63 180.97">
  <defs>
    <style>
      .cls-1 {
        fill: #076bf1;
        opacity: .9;
      }

      .cls-2 {
        fill: #0440f2;
      }

      .cls-3 {
        fill: #051025;
      }

      .cls-4 {
        fill: #fff;
      }
    </style>
  </defs>
  <g id="Layer_1" data-name="Layer 1">
    <g>
      <path class="cls-2" d="M182.63,71.14v62.66c0,26.05-21.12,47.17-47.17,47.17h-43.95L0,88.21v-17.91c0-18.36,10.47-35.1,26.96-43.16L75.48,3.46c9.45-4.61,20.49-4.61,29.94,0l50.25,24.53c16.48,8.06,26.95,24.8,26.95,43.16Z"/>
      <path class="cls-3" d="M91.51,180.97h-44.34c-26.05,0-47.17-21.12-47.17-47.17v-45.59l91.51,92.76Z"/>
      <path class="cls-4" d="M73.81,50.27v22.56l-34.31,19.48,1.81,3.18,9.81-5.57-.04,25.85h22.73v14.93h43.73v-14.93h14.93v-27.71l9.23,5.28,1.82-3.17-69.71-39.89ZM77.47,56.58l12.43,7.12-12.43,7.06v-14.18ZM87.12,69.48v42.64h-9.66v-37.15l9.66-5.48ZM54.74,112.11l.04-24.27,19.03-10.81v35.08h-19.07ZM113.89,112.11h-16.11v-18.26h16.11v18.26ZM128.82,112.11h-11.27v-21.92h-23.43v25.58h19.77v11.27h-36.42v-11.27h13.31v-51.57l38.04,21.77v26.15Z"/>
      <path class="cls-1" d="M0,88.21h44.34c26.05,0,47.17,21.12,47.17,47.17v45.59L0,88.21Z"/>
    </g>
  </g>
</svg>